<svg xmlns="http://www.w3.org/2000/svg" xmlns:xlink="http://www.w3.org/1999/xlink" xmlns:lucid="lucid" width="1760" height="1360"><g transform="translate(0 0)" lucid:page-tab-id="HWEp-vi-RSFO"><path d="M0 0h1760v1360H0z" fill="#fff"/><path d="M640 120h300v267H640z" stroke="#333" stroke-width="2" fill="#fff"/><path d="M640 184.53h300" stroke="#333" stroke-width="2" fill="none"/><use xlink:href="#a" transform="matrix(1,0,0,1,648,128) translate(103.99907407407409 16.411111111111115)"/><use xlink:href="#b" transform="matrix(1,0,0,1,648,128) translate(99.95462962962965 40.67777777777778)"/><use xlink:href="#c" transform="matrix(1,0,0,1,652,192.5333333333333) translate(0 58.43650793650794)"/><use xlink:href="#d" transform="matrix(1,0,0,1,652,192.5333333333333) translate(15.555555555555557 58.43650793650794)"/><use xlink:href="#e" transform="matrix(1,0,0,1,652,192.5333333333333) translate(27.528395061728396 58.43650793650794)"/><use xlink:href="#f" transform="matrix(1,0,0,1,652,192.5333333333333) translate(138.93580246913578 58.43650793650794)"/><use xlink:href="#g" transform="matrix(1,0,0,1,652,192.5333333333333) translate(150.54074074074072 58.43650793650794)"/><use xlink:href="#h" transform="matrix(1,0,0,1,652,192.5333333333333) translate(0 86.78571428571429)"/><use xlink:href="#i" transform="matrix(1,0,0,1,652,192.5333333333333) translate(17.407407407407405 86.78571428571429)"/><use xlink:href="#j" transform="matrix(1,0,0,1,652,192.5333333333333) translate(30.11481481481481 86.78571428571429)"/><use xlink:href="#k" transform="matrix(1,0,0,1,652,192.5333333333333) translate(182.08148148148146 86.78571428571429)"/><use xlink:href="#h" transform="matrix(1,0,0,1,652,192.5333333333333) translate(0 111.85238095238095)"/><use xlink:href="#i" transform="matrix(1,0,0,1,652,192.5333333333333) translate(17.407407407407405 111.85238095238095)"/><use xlink:href="#l" transform="matrix(1,0,0,1,652,192.5333333333333) translate(30.11481481481481 111.85238095238095)"/><use xlink:href="#f" transform="matrix(1,0,0,1,652,192.5333333333333) translate(147.32469135802467 111.85238095238095)"/><use xlink:href="#m" transform="matrix(1,0,0,1,652,192.5333333333333) translate(158.9296296296296 111.85238095238095)"/><use xlink:href="#h" transform="matrix(1,0,0,1,652,192.5333333333333) translate(0 136.9190476190476)"/><use xlink:href="#n" transform="matrix(1,0,0,1,652,192.5333333333333) translate(17.407407407407405 136.9190476190476)"/><use xlink:href="#o" transform="matrix(1,0,0,1,652,192.5333333333333) translate(35.395061728395056 136.9190476190476)"/><path d="M180 140h300v211H180z" stroke="#333" stroke-width="2" fill="#fff"/><path d="M180 181.6h300" stroke="#333" stroke-width="2" fill="none"/><use xlink:href="#p" transform="matrix(1,0,0,1,188,148) translate(35.511111111111106 17.266666666666666)"/><use xlink:href="#q" transform="matrix(1,0,0,1,188,148) translate(165.5851851851852 17.266666666666666)"/><use xlink:href="#r" transform="matrix(1,0,0,1,192,189.60000000000002) translate(0 44.144444444444446)"/><use xlink:href="#s" transform="matrix(1,0,0,1,192,189.60000000000002) translate(17.41358024691358 44.144444444444446)"/><use xlink:href="#r" transform="matrix(1,0,0,1,192,189.60000000000002) translate(0 68.41111111111111)"/><use xlink:href="#t" transform="matrix(1,0,0,1,192,189.60000000000002) translate(17.41358024691358 68.41111111111111)"/><use xlink:href="#r" transform="matrix(1,0,0,1,192,189.60000000000002) translate(0 92.67777777777778)"/><use xlink:href="#u" transform="matrix(1,0,0,1,192,189.60000000000002) translate(17.41358024691358 92.67777777777778)"/><use xlink:href="#r" transform="matrix(1,0,0,1,192,189.60000000000002) translate(0 116.94444444444444)"/><use xlink:href="#v" transform="matrix(1,0,0,1,192,189.60000000000002) translate(17.41358024691358 116.94444444444444)"/><path d="M481.5 260h141.12" stroke="#333" fill="none"/><path d="M481.5 260.5h-.5v-1h.5z" stroke="#333" stroke-width=".05" fill="#333"/><path d="M637.38 260l-14.26 4.64v-9.28z" stroke="#333" fill="#333"/><path d="M660 500h300v287H660z" stroke="#333" stroke-width="2" fill="#fff"/><path d="M660 564.53h300" stroke="#333" stroke-width="2" fill="none"/><g><use xlink:href="#w" transform="matrix(1,0,0,1,668,508.0000000000001) translate(100.48827160493829 16.411111111111115)"/><use xlink:href="#b" transform="matrix(1,0,0,1,668,508.0000000000001) translate(99.95462962962965 40.67777777777778)"/></g><g><use xlink:href="#x" transform="matrix(1,0,0,1,672,572.5333333333334) translate(0 56.566666666666656)"/><use xlink:href="#y" transform="matrix(1,0,0,1,672,572.5333333333334) translate(10.370370370370372 56.566666666666656)"/><use xlink:href="#z" transform="matrix(1,0,0,1,672,572.5333333333334) translate(21.725925925925928 56.566666666666656)"/><use xlink:href="#A" transform="matrix(1,0,0,1,672,572.5333333333334) translate(73.52592592592593 56.566666666666656)"/><use xlink:href="#B" transform="matrix(1,0,0,1,672,572.5333333333334) translate(83.8962962962963 56.566666666666656)"/><use xlink:href="#x" transform="matrix(1,0,0,1,672,572.5333333333334) translate(0 81.89999999999999)"/><use xlink:href="#y" transform="matrix(1,0,0,1,672,572.5333333333334) translate(10.370370370370372 81.89999999999999)"/><use xlink:href="#C" transform="matrix(1,0,0,1,672,572.5333333333334) translate(21.725925925925928 81.89999999999999)"/><use xlink:href="#A" transform="matrix(1,0,0,1,672,572.5333333333334) translate(71.34814814814814 81.89999999999999)"/><use xlink:href="#B" transform="matrix(1,0,0,1,672,572.5333333333334) translate(81.71851851851851 81.89999999999999)"/><use xlink:href="#x" transform="matrix(1,0,0,1,672,572.5333333333334) translate(0 107.23333333333333)"/><use xlink:href="#y" transform="matrix(1,0,0,1,672,572.5333333333334) translate(10.370370370370372 107.23333333333333)"/><use xlink:href="#D" transform="matrix(1,0,0,1,672,572.5333333333334) translate(21.725925925925928 107.23333333333333)"/><use xlink:href="#A" transform="matrix(1,0,0,1,672,572.5333333333334) translate(80.78518518518518 107.23333333333333)"/><use xlink:href="#E" transform="matrix(1,0,0,1,672,572.5333333333334) translate(91.15555555555555 107.23333333333333)"/><use xlink:href="#x" transform="matrix(1,0,0,1,672,572.5333333333334) translate(0 132.56666666666666)"/><use xlink:href="#y" transform="matrix(1,0,0,1,672,572.5333333333334) translate(10.370370370370372 132.56666666666666)"/><use xlink:href="#F" transform="matrix(1,0,0,1,672,572.5333333333334) translate(21.725925925925928 132.56666666666666)"/><use xlink:href="#A" transform="matrix(1,0,0,1,672,572.5333333333334) translate(84.93333333333334 132.56666666666666)"/><use xlink:href="#G" transform="matrix(1,0,0,1,672,572.5333333333334) translate(95.3037037037037 132.56666666666666)"/><use xlink:href="#H" transform="matrix(1,0,0,1,672,572.5333333333334) translate(0 157.9)"/><use xlink:href="#I" transform="matrix(1,0,0,1,672,572.5333333333334) translate(10.370370370370372 157.9)"/><use xlink:href="#J" transform="matrix(1,0,0,1,672,572.5333333333334) translate(26.44444444444445 157.9)"/></g><path d="M790 388.5v94.12" stroke="#333" fill="none"/><path d="M790.5 388.5h-1v-.5h1z" stroke="#333" stroke-width=".05" fill="#333"/><path d="M790 497.38l-4.62-14.26h9.27z" stroke="#333" fill="#333"/><path d="M660 860h300v217H660z" stroke="#333" stroke-width="2" fill="#fff"/><path d="M660 924.53h300" stroke="#333" stroke-width="2" fill="none"/><g><use xlink:href="#K" transform="matrix(1,0,0,1,668,868) translate(101.63981481481483 16.411111111111115)"/><use xlink:href="#b" transform="matrix(1,0,0,1,668,868) translate(99.95462962962965 40.67777777777778)"/></g><g><use xlink:href="#L" transform="matrix(1,0,0,1,672,932.5333333333333) translate(0 58.5031746031746)"/><use xlink:href="#M" transform="matrix(1,0,0,1,672,932.5333333333333) translate(15.555555555555554 58.5031746031746)"/><use xlink:href="#N" transform="matrix(1,0,0,1,672,932.5333333333333) translate(27.52839506172839 58.5031746031746)"/><use xlink:href="#f" transform="matrix(1,0,0,1,672,932.5333333333333) translate(84.27654320987652 58.5031746031746)"/><use xlink:href="#O" transform="matrix(1,0,0,1,672,932.5333333333333) translate(95.88148148148146 58.5031746031746)"/><use xlink:href="#P" transform="matrix(1,0,0,1,672,932.5333333333333) translate(0 86.85238095238095)"/><use xlink:href="#Q" transform="matrix(1,0,0,1,672,932.5333333333333) translate(17.407407407407398 86.85238095238095)"/><use xlink:href="#R" transform="matrix(1,0,0,1,672,932.5333333333333) translate(30.1148148148148 86.85238095238095)"/><use xlink:href="#S" transform="matrix(1,0,0,1,672,932.5333333333333) translate(93.88395061728392 86.85238095238095)"/></g><path d="M810 788.5v54.12" stroke="#333" fill="none"/><path d="M810.5 788.5h-1v-.5h1z" stroke="#333" stroke-width=".05" fill="#333"/><path d="M810 857.38l-4.64-14.26h9.28z" stroke="#333" fill="#333"/><path d="M140 535h300v217H140z" stroke="#333" stroke-width="2" fill="#fff"/><path d="M140 599.53h300" stroke="#333" stroke-width="2" fill="none"/><g><use xlink:href="#T" transform="matrix(1,0,0,1,148,543.0000000000001) translate(113.40802469135804 16.411111111111115)"/><use xlink:href="#b" transform="matrix(1,0,0,1,148,543.0000000000001) translate(99.95462962962965 40.67777777777778)"/></g><g><use xlink:href="#L" transform="matrix(1,0,0,1,152,607.5333333333334) translate(0 58.5031746031746)"/><use xlink:href="#M" transform="matrix(1,0,0,1,152,607.5333333333334) translate(15.555555555555554 58.5031746031746)"/><use xlink:href="#N" transform="matrix(1,0,0,1,152,607.5333333333334) translate(27.52839506172839 58.5031746031746)"/><use xlink:href="#f" transform="matrix(1,0,0,1,152,607.5333333333334) translate(84.27654320987652 58.5031746031746)"/><use xlink:href="#O" transform="matrix(1,0,0,1,152,607.5333333333334) translate(95.88148148148146 58.5031746031746)"/><use xlink:href="#P" transform="matrix(1,0,0,1,152,607.5333333333334) translate(0 86.85238095238095)"/><use xlink:href="#Q" transform="matrix(1,0,0,1,152,607.5333333333334) translate(17.407407407407398 86.85238095238095)"/><use xlink:href="#R" transform="matrix(1,0,0,1,152,607.5333333333334) translate(30.1148148148148 86.85238095238095)"/><use xlink:href="#S" transform="matrix(1,0,0,1,152,607.5333333333334) translate(93.88395061728392 86.85238095238095)"/></g><path d="M658.5 643.5H457.38" stroke="#333" fill="none"/><path d="M659 644h-.5v-1h.5z" stroke="#333" stroke-width=".05" fill="#333"/><path d="M442.62 643.5l14.26-4.64v9.28z" stroke="#333" fill="#333"/><defs><path fill="#333" d="M137 0h-34L2-248h35l83 218 83-218h36" id="U"/><path fill="#333" d="M141-36C126-15 110 5 73 4 37 3 15-17 15-53c-1-64 63-63 125-63 3-35-9-54-41-54-24 1-41 7-42 31l-33-3c5-37 33-52 76-52 45 0 72 20 72 64v82c-1 20 7 32 28 27v20c-31 9-61-2-59-35zM48-53c0 20 12 33 32 33 41-3 63-29 60-74-43 2-92-5-92 41" id="V"/><path fill="#333" d="M96-169c-40 0-48 33-48 73s9 75 48 75c24 0 41-14 43-38l32 2c-6 37-31 61-74 61-59 0-76-41-82-99-10-93 101-131 147-64 4 7 5 14 7 22l-32 3c-4-21-16-35-41-35" id="W"/><path fill="#333" d="M117-194c89-4 53 116 60 194h-32v-121c0-31-8-49-39-48C34-167 62-67 57 0H25l-1-190h30c1 10-1 24 2 32 11-22 29-35 61-36" id="X"/><path fill="#333" d="M179-190L93 31C79 59 56 82 12 73V49c39 6 53-20 64-50L1-190h34L92-34l54-156h33" id="Y"/><g id="a"><use transform="matrix(0.056172839506172814,0,0,0.056172839506172814,0,0)" xlink:href="#U"/><use transform="matrix(0.056172839506172814,0,0,0.056172839506172814,11.96481481481481,0)" xlink:href="#V"/><use transform="matrix(0.056172839506172814,0,0,0.056172839506172814,23.19938271604937,0)" xlink:href="#W"/><use transform="matrix(0.056172839506172814,0,0,0.056172839506172814,33.31049382716048,0)" xlink:href="#V"/><use transform="matrix(0.056172839506172814,0,0,0.056172839506172814,44.54506172839504,0)" xlink:href="#X"/><use transform="matrix(0.056172839506172814,0,0,0.056172839506172814,55.7796296296296,0)" xlink:href="#W"/><use transform="matrix(0.056172839506172814,0,0,0.056172839506172814,65.89074074074071,0)" xlink:href="#Y"/></g><path fill="#333" d="M24 0v-248h52V0H24" id="Z"/><path fill="#333" d="M135-194c87-1 58 113 63 194h-50c-7-57 23-157-34-157-59 0-34 97-39 157H25l-1-190h47c2 12-1 28 3 38 12-26 28-41 61-42" id="aa"/><path fill="#333" d="M115-3C79 11 28 4 28-45v-112H4v-33h27l15-45h31v45h36v33H77v99c-1 23 16 31 38 25v30" id="ab"/><path fill="#333" d="M185-48c-13 30-37 53-82 52C43 2 14-33 14-96s30-98 90-98c62 0 83 45 84 108H66c0 31 8 55 39 56 18 0 30-7 34-22zm-45-69c5-46-57-63-70-21-2 6-4 13-4 21h74" id="ac"/><path fill="#333" d="M135-150c-39-12-60 13-60 57V0H25l-1-190h47c2 13-1 29 3 40 6-28 27-53 61-41v41" id="ad"/><path fill="#333" d="M121-226c-27-7-43 5-38 36h38v33H83V0H34v-157H6v-33h28c-9-59 32-81 87-68v32" id="ae"/><path fill="#333" d="M133-34C117-15 103 5 69 4 32 3 11-16 11-54c-1-60 55-63 116-61 1-26-3-47-28-47-18 1-26 9-28 27l-52-2c7-38 36-58 82-57s74 22 75 68l1 82c-1 14 12 18 25 15v27c-30 8-71 5-69-32zm-48 3c29 0 43-24 42-57-32 0-66-3-65 30 0 17 8 27 23 27" id="af"/><path fill="#333" d="M190-63c-7 42-38 67-86 67-59 0-84-38-90-98-12-110 154-137 174-36l-49 2c-2-19-15-32-35-32-30 0-35 28-38 64-6 74 65 87 74 30" id="ag"/><g id="b"><use transform="matrix(0.056172839506172814,0,0,0.056172839506172814,0,0)" xlink:href="#Z"/><use transform="matrix(0.056172839506172814,0,0,0.056172839506172814,5.617283950617281,0)" xlink:href="#aa"/><use transform="matrix(0.056172839506172814,0,0,0.056172839506172814,17.91913580246913,0)" xlink:href="#ab"/><use transform="matrix(0.056172839506172814,0,0,0.056172839506172814,24.603703703703694,0)" xlink:href="#ac"/><use transform="matrix(0.056172839506172814,0,0,0.056172839506172814,35.83827160493826,0)" xlink:href="#ad"/><use transform="matrix(0.056172839506172814,0,0,0.056172839506172814,43.70246913580245,0)" xlink:href="#ae"/><use transform="matrix(0.056172839506172814,0,0,0.056172839506172814,50.38703703703702,0)" xlink:href="#af"/><use transform="matrix(0.056172839506172814,0,0,0.056172839506172814,61.621604938271574,0)" xlink:href="#ag"/><use transform="matrix(0.056172839506172814,0,0,0.056172839506172814,72.85617283950614,0)" xlink:href="#ac"/></g><path d="M16-82v-28h88v28H16" id="ah"/><use transform="matrix(0.05185185185185186,0,0,0.05185185185185186,0,0)" xlink:href="#ah" id="d"/><path fill="#282c33" d="M108 0H70L1-190h34L89-25l56-165h34" id="ai"/><path fill="#282c33" d="M141-36C126-15 110 5 73 4 37 3 15-17 15-53c-1-64 63-63 125-63 3-35-9-54-41-54-24 1-41 7-42 31l-33-3c5-37 33-52 76-52 45 0 72 20 72 64v82c-1 20 7 32 28 27v20c-31 9-61-2-59-35zM48-53c0 20 12 33 32 33 41-3 63-29 60-74-43 2-92-5-92 41" id="aj"/><path fill="#282c33" d="M96-169c-40 0-48 33-48 73s9 75 48 75c24 0 41-14 43-38l32 2c-6 37-31 61-74 61-59 0-76-41-82-99-10-93 101-131 147-64 4 7 5 14 7 22l-32 3c-4-21-16-35-41-35" id="ak"/><path fill="#282c33" d="M117-194c89-4 53 116 60 194h-32v-121c0-31-8-49-39-48C34-167 62-67 57 0H25l-1-190h30c1 10-1 24 2 32 11-22 29-35 61-36" id="al"/><path fill="#282c33" d="M179-190L93 31C79 59 56 82 12 73V49c39 6 53-20 64-50L1-190h34L92-34l54-156h33" id="am"/><path fill="#282c33" d="M-5 72V49h209v23H-5" id="an"/><path fill="#282c33" d="M33 0v-248h34V0H33" id="ao"/><path fill="#282c33" d="M85-194c31 0 48 13 60 33l-1-100h32l1 261h-30c-2-10 0-23-3-31C134-8 116 4 85 4 32 4 16-35 15-94c0-66 23-100 70-100zm9 24c-40 0-46 34-46 75 0 40 6 74 45 74 42 0 51-32 51-76 0-42-9-74-50-73" id="ap"/><g id="e"><use transform="matrix(0.05802469135802468,0,0,0.05802469135802468,0,0)" xlink:href="#ai"/><use transform="matrix(0.05802469135802468,0,0,0.05802469135802468,10.444444444444443,0)" xlink:href="#aj"/><use transform="matrix(0.05802469135802468,0,0,0.05802469135802468,22.04938271604938,0)" xlink:href="#ak"/><use transform="matrix(0.05802469135802468,0,0,0.05802469135802468,32.49382716049382,0)" xlink:href="#aj"/><use transform="matrix(0.05802469135802468,0,0,0.05802469135802468,44.09876543209876,0)" xlink:href="#al"/><use transform="matrix(0.05802469135802468,0,0,0.05802469135802468,55.703703703703695,0)" xlink:href="#ak"/><use transform="matrix(0.05802469135802468,0,0,0.05802469135802468,66.14814814814814,0)" xlink:href="#am"/><use transform="matrix(0.05802469135802468,0,0,0.05802469135802468,76.59259259259258,0)" xlink:href="#an"/><use transform="matrix(0.05802469135802468,0,0,0.05802469135802468,88.19753086419752,0)" xlink:href="#ao"/><use transform="matrix(0.05802469135802468,0,0,0.05802469135802468,93.99999999999999,0)" xlink:href="#ap"/></g><path fill="#282c33" d="M33-154v-36h34v36H33zM33 0v-36h34V0H33" id="aq"/><use transform="matrix(0.05802469135802468,0,0,0.05802469135802468,0,0)" xlink:href="#aq" id="f"/><path fill="#282c33" d="M84 4C-5 8 30-112 23-190h32v120c0 31 7 50 39 49 72-2 45-101 50-169h31l1 190h-30c-1-10 1-25-2-33-11 22-28 36-60 37" id="ar"/><path fill="#282c33" d="M210-169c-67 3-38 105-44 169h-31v-121c0-29-5-50-35-48C34-165 62-65 56 0H25l-1-190h30c1 10-1 24 2 32 10-44 99-50 107 0 11-21 27-35 58-36 85-2 47 119 55 194h-31v-121c0-29-5-49-35-48" id="as"/><path fill="#282c33" d="M115-194c53 0 69 39 70 98 0 66-23 100-70 100C84 3 66-7 56-30L54 0H23l1-261h32v101c10-23 28-34 59-34zm-8 174c40 0 45-34 45-75 0-40-5-75-45-74-42 0-51 32-51 76 0 43 10 73 51 73" id="at"/><path fill="#282c33" d="M100-194c63 0 86 42 84 106H49c0 40 14 67 53 68 26 1 43-12 49-29l28 8c-11 28-37 45-77 45C44 4 14-33 15-96c1-61 26-98 85-98zm52 81c6-60-76-77-97-28-3 7-6 17-6 28h103" id="au"/><path fill="#282c33" d="M114-163C36-179 61-72 57 0H25l-1-190h30c1 12-1 29 2 39 6-27 23-49 58-41v29" id="av"/><g id="g"><use transform="matrix(0.05802469135802468,0,0,0.05802469135802468,0,0)" xlink:href="#al"/><use transform="matrix(0.05802469135802468,0,0,0.05802469135802468,11.604938271604937,0)" xlink:href="#ar"/><use transform="matrix(0.05802469135802468,0,0,0.05802469135802468,23.209876543209873,0)" xlink:href="#as"/><use transform="matrix(0.05802469135802468,0,0,0.05802469135802468,40.55925925925925,0)" xlink:href="#at"/><use transform="matrix(0.05802469135802468,0,0,0.05802469135802468,52.164197530864186,0)" xlink:href="#au"/><use transform="matrix(0.05802469135802468,0,0,0.05802469135802468,63.76913580246912,0)" xlink:href="#av"/></g><path fill="#282c33" d="M16-82v-28h88v28H16" id="aw"/><use transform="matrix(0.05802469135802468,0,0,0.05802469135802468,0,0)" xlink:href="#aw" id="i"/><g id="j"><use transform="matrix(0.05802469135802468,0,0,0.05802469135802468,0,0)" xlink:href="#ai"/><use transform="matrix(0.05802469135802468,0,0,0.05802469135802468,10.444444444444443,0)" xlink:href="#aj"/><use transform="matrix(0.05802469135802468,0,0,0.05802469135802468,22.04938271604938,0)" xlink:href="#ak"/><use transform="matrix(0.05802469135802468,0,0,0.05802469135802468,32.49382716049382,0)" xlink:href="#aj"/><use transform="matrix(0.05802469135802468,0,0,0.05802469135802468,44.09876543209876,0)" xlink:href="#al"/><use transform="matrix(0.05802469135802468,0,0,0.05802469135802468,55.703703703703695,0)" xlink:href="#ak"/><use transform="matrix(0.05802469135802468,0,0,0.05802469135802468,66.14814814814814,0)" xlink:href="#am"/><use transform="matrix(0.05802469135802468,0,0,0.05802469135802468,76.59259259259258,0)" xlink:href="#an"/><use transform="matrix(0.05802469135802468,0,0,0.05802469135802468,88.19753086419752,0)" xlink:href="#al"/><use transform="matrix(0.05802469135802468,0,0,0.05802469135802468,99.80246913580245,0)" xlink:href="#aj"/><use transform="matrix(0.05802469135802468,0,0,0.05802469135802468,111.40740740740739,0)" xlink:href="#as"/><use transform="matrix(0.05802469135802468,0,0,0.05802469135802468,128.75679012345677,0)" xlink:href="#au"/><use transform="matrix(0.05802469135802468,0,0,0.05802469135802468,140.3617283950617,0)" xlink:href="#aq"/></g><path fill="#282c33" d="M135-143c-3-34-86-38-87 0 15 53 115 12 119 90S17 21 10-45l28-5c4 36 97 45 98 0-10-56-113-15-118-90-4-57 82-63 122-42 12 7 21 19 24 35" id="ax"/><path fill="#282c33" d="M59-47c-2 24 18 29 38 22v24C64 9 27 4 27-40v-127H5v-23h24l9-43h21v43h35v23H59v120" id="ay"/><path fill="#282c33" d="M24-231v-30h32v30H24zM24 0v-190h32V0H24" id="az"/><path fill="#282c33" d="M177-190C167-65 218 103 67 71c-23-6-38-20-44-43l32-5c15 47 100 32 89-28v-30C133-14 115 1 83 1 29 1 15-40 15-95c0-56 16-97 71-98 29-1 48 16 59 35 1-10 0-23 2-32h30zM94-22c36 0 50-32 50-73 0-42-14-75-50-75-39 0-46 34-46 75s6 73 46 73" id="aA"/><g id="k"><use transform="matrix(0.05802469135802468,0,0,0.05802469135802468,0,0)" xlink:href="#ax"/><use transform="matrix(0.05802469135802468,0,0,0.05802469135802468,10.444444444444443,0)" xlink:href="#ay"/><use transform="matrix(0.05802469135802468,0,0,0.05802469135802468,16.24691358024691,0)" xlink:href="#av"/><use transform="matrix(0.05802469135802468,0,0,0.05802469135802468,23.15185185185185,0)" xlink:href="#az"/><use transform="matrix(0.05802469135802468,0,0,0.05802469135802468,27.7358024691358,0)" xlink:href="#al"/><use transform="matrix(0.05802469135802468,0,0,0.05802469135802468,39.340740740740735,0)" xlink:href="#aA"/></g><path fill="#282c33" d="M100-194c62-1 85 37 85 99 1 63-27 99-86 99S16-35 15-95c0-66 28-99 85-99zM99-20c44 1 53-31 53-75 0-43-8-75-51-75s-53 32-53 75 10 74 51 75" id="aB"/><g id="l"><use transform="matrix(0.05802469135802468,0,0,0.05802469135802468,0,0)" xlink:href="#ai"/><use transform="matrix(0.05802469135802468,0,0,0.05802469135802468,10.444444444444443,0)" xlink:href="#aj"/><use transform="matrix(0.05802469135802468,0,0,0.05802469135802468,22.04938271604938,0)" xlink:href="#ak"/><use transform="matrix(0.05802469135802468,0,0,0.05802469135802468,32.49382716049382,0)" xlink:href="#aj"/><use transform="matrix(0.05802469135802468,0,0,0.05802469135802468,44.09876543209876,0)" xlink:href="#al"/><use transform="matrix(0.05802469135802468,0,0,0.05802469135802468,55.703703703703695,0)" xlink:href="#ak"/><use transform="matrix(0.05802469135802468,0,0,0.05802469135802468,66.14814814814814,0)" xlink:href="#am"/><use transform="matrix(0.05802469135802468,0,0,0.05802469135802468,76.59259259259258,0)" xlink:href="#an"/><use transform="matrix(0.05802469135802468,0,0,0.05802469135802468,88.19753086419752,0)" xlink:href="#al"/><use transform="matrix(0.05802469135802468,0,0,0.05802469135802468,99.80246913580245,0)" xlink:href="#aB"/></g><g id="m"><use transform="matrix(0.05802469135802468,0,0,0.05802469135802468,0,0)" xlink:href="#al"/><use transform="matrix(0.05802469135802468,0,0,0.05802469135802468,11.604938271604937,0)" xlink:href="#ar"/><use transform="matrix(0.05802469135802468,0,0,0.05802469135802468,23.209876543209873,0)" xlink:href="#as"/><use transform="matrix(0.05802469135802468,0,0,0.05802469135802468,40.55925925925925,0)" xlink:href="#at"/><use transform="matrix(0.05802469135802468,0,0,0.05802469135802468,52.164197530864186,0)" xlink:href="#au"/><use transform="matrix(0.05802469135802468,0,0,0.05802469135802468,63.76913580246912,0)" xlink:href="#av"/></g><path fill="#282c33" d="M118-107v75H92v-75H18v-26h74v-75h26v75h74v26h-74" id="aC"/><use transform="matrix(0.05802469135802468,0,0,0.05802469135802468,0,0)" xlink:href="#aC" id="n"/><path fill="#282c33" d="M106-169C34-169 62-67 57 0H25v-261h32l-1 103c12-21 28-36 61-36 89 0 53 116 60 194h-32v-121c2-32-8-49-39-48" id="aD"/><path fill="#282c33" d="M206 0h-36l-40-164L89 0H53L-1-190h32L70-26l43-164h34l41 164 42-164h31" id="aE"/><path fill="#282c33" d="M137 0h-34L2-248h35l83 218 83-218h36" id="aF"/><path fill="#282c33" d="M87 75C49 33 22-17 22-94c0-76 28-126 65-167h31c-38 41-64 92-64 168S80 34 118 75H87" id="aG"/><path fill="#282c33" d="M33-261c38 41 65 92 65 168S71 34 33 75H2C39 34 66-17 66-93S39-220 2-261h31" id="aH"/><g id="o"><use transform="matrix(0.05802469135802468,0,0,0.05802469135802468,0,0)" xlink:href="#ax"/><use transform="matrix(0.05802469135802468,0,0,0.05802469135802468,10.444444444444443,0)" xlink:href="#aD"/><use transform="matrix(0.05802469135802468,0,0,0.05802469135802468,22.04938271604938,0)" xlink:href="#aB"/><use transform="matrix(0.05802469135802468,0,0,0.05802469135802468,33.654320987654316,0)" xlink:href="#aE"/><use transform="matrix(0.05802469135802468,0,0,0.05802469135802468,48.682716049382705,0)" xlink:href="#aF"/><use transform="matrix(0.05802469135802468,0,0,0.05802469135802468,61.041975308641966,0)" xlink:href="#aj"/><use transform="matrix(0.05802469135802468,0,0,0.05802469135802468,72.6469135802469,0)" xlink:href="#ak"/><use transform="matrix(0.05802469135802468,0,0,0.05802469135802468,83.09135802469135,0)" xlink:href="#aj"/><use transform="matrix(0.05802469135802468,0,0,0.05802469135802468,94.69629629629628,0)" xlink:href="#al"/><use transform="matrix(0.05802469135802468,0,0,0.05802469135802468,106.30123456790122,0)" xlink:href="#ak"/><use transform="matrix(0.05802469135802468,0,0,0.05802469135802468,116.74567901234566,0)" xlink:href="#az"/><use transform="matrix(0.05802469135802468,0,0,0.05802469135802468,121.32962962962961,0)" xlink:href="#au"/><use transform="matrix(0.05802469135802468,0,0,0.05802469135802468,132.93456790123454,0)" xlink:href="#aG"/><use transform="matrix(0.05802469135802468,0,0,0.05802469135802468,139.8395061728395,0)" xlink:href="#aH"/><use transform="matrix(0.05802469135802468,0,0,0.05802469135802468,146.74444444444444,0)" xlink:href="#aq"/><use transform="matrix(0.05802469135802468,0,0,0.05802469135802468,152.5469135802469,0)" xlink:href="#ax"/><use transform="matrix(0.05802469135802468,0,0,0.05802469135802468,162.99135802469135,0)" xlink:href="#ay"/><use transform="matrix(0.05802469135802468,0,0,0.05802469135802468,168.79382716049383,0)" xlink:href="#av"/><use transform="matrix(0.05802469135802468,0,0,0.05802469135802468,175.69876543209878,0)" xlink:href="#az"/><use transform="matrix(0.05802469135802468,0,0,0.05802469135802468,180.28271604938274,0)" xlink:href="#al"/><use transform="matrix(0.05802469135802468,0,0,0.05802469135802468,191.88765432098768,0)" xlink:href="#aA"/></g><path fill="#212529" d="M240-174c0 40-23 61-54 70L253 0h-59l-57-94H76V0H24v-248c93 4 217-23 216 74zM76-134c48-2 112 12 112-38 0-48-66-32-112-35v73" id="aI"/><path fill="#212529" d="M185-48c-13 30-37 53-82 52C43 2 14-33 14-96s30-98 90-98c62 0 83 45 84 108H66c0 31 8 55 39 56 18 0 30-7 34-22zm-45-69c5-46-57-63-70-21-2 6-4 13-4 21h74" id="aJ"/><path fill="#212529" d="M190-63c-7 42-38 67-86 67-59 0-84-38-90-98-12-110 154-137 174-36l-49 2c-2-19-15-32-35-32-30 0-35 28-38 64-6 74 65 87 74 30" id="aK"/><path fill="#212529" d="M135-150c-39-12-60 13-60 57V0H25l-1-190h47c2 13-1 29 3 40 6-28 27-53 61-41v41" id="aL"/><path fill="#212529" d="M85 4C-2 5 27-109 22-190h50c7 57-23 150 33 157 60-5 35-97 40-157h50l1 190h-47c-2-12 1-28-3-38-12 25-28 42-61 42" id="aM"/><path fill="#212529" d="M25-224v-37h50v37H25zM25 0v-190h50V0H25" id="aN"/><path fill="#212529" d="M115-3C79 11 28 4 28-45v-112H4v-33h27l15-45h31v45h36v33H77v99c-1 23 16 31 38 25v30" id="aO"/><path fill="#212529" d="M220-157c-53 9-28 100-34 157h-49v-107c1-27-5-49-29-50C55-147 81-57 75 0H25l-1-190h47c2 12-1 28 3 38 10-53 101-56 108 0 13-22 24-43 59-42 82 1 51 116 57 194h-49v-107c-1-25-5-48-29-50" id="aP"/><path fill="#212529" d="M135-194c87-1 58 113 63 194h-50c-7-57 23-157-34-157-59 0-34 97-39 157H25l-1-190h47c2 12-1 28 3 38 12-26 28-41 61-42" id="aQ"/><g id="p"><use transform="matrix(0.05925925925925927,0,0,0.05925925925925927,0,0)" xlink:href="#aI"/><use transform="matrix(0.05925925925925927,0,0,0.05925925925925927,15.34814814814815,0)" xlink:href="#aJ"/><use transform="matrix(0.05925925925925927,0,0,0.05925925925925927,27.200000000000003,0)" xlink:href="#aK"/><use transform="matrix(0.05925925925925927,0,0,0.05925925925925927,39.05185185185186,0)" xlink:href="#aL"/><use transform="matrix(0.05925925925925927,0,0,0.05925925925925927,47.348148148148155,0)" xlink:href="#aM"/><use transform="matrix(0.05925925925925927,0,0,0.05925925925925927,60.32592592592594,0)" xlink:href="#aN"/><use transform="matrix(0.05925925925925927,0,0,0.05925925925925927,66.25185185185187,0)" xlink:href="#aO"/><use transform="matrix(0.05925925925925927,0,0,0.05925925925925927,73.30370370370372,0)" xlink:href="#aP"/><use transform="matrix(0.05925925925925927,0,0,0.05925925925925927,92.26666666666668,0)" xlink:href="#aJ"/><use transform="matrix(0.05925925925925927,0,0,0.05925925925925927,104.11851851851853,0)" xlink:href="#aQ"/><use transform="matrix(0.05925925925925927,0,0,0.05925925925925927,117.0962962962963,0)" xlink:href="#aO"/></g><path fill="#212529" d="M24-248c93 1 206-16 204 79-1 75-69 88-152 82V0H24v-248zm52 121c47 0 100 7 100-41 0-47-54-39-100-39v80" id="aR"/><path fill="#212529" d="M110-194c64 0 96 36 96 99 0 64-35 99-97 99-61 0-95-36-95-99 0-62 34-99 96-99zm-1 164c35 0 45-28 45-65 0-40-10-65-43-65-34 0-45 26-45 65 0 36 10 65 43 65" id="aS"/><path fill="#212529" d="M137-138c1-29-70-34-71-4 15 46 118 7 119 86 1 83-164 76-172 9l43-7c4 19 20 25 44 25 33 8 57-30 24-41C81-84 22-81 20-136c-2-80 154-74 161-7" id="aT"/><g id="q"><use transform="matrix(0.05925925925925927,0,0,0.05925925925925927,0,0)" xlink:href="#aR"/><use transform="matrix(0.05925925925925927,0,0,0.05925925925925927,14.222222222222225,0)" xlink:href="#aL"/><use transform="matrix(0.05925925925925927,0,0,0.05925925925925927,22.518518518518523,0)" xlink:href="#aS"/><use transform="matrix(0.05925925925925927,0,0,0.05925925925925927,35.4962962962963,0)" xlink:href="#aK"/><use transform="matrix(0.05925925925925927,0,0,0.05925925925925927,47.348148148148155,0)" xlink:href="#aJ"/><use transform="matrix(0.05925925925925927,0,0,0.05925925925925927,59.20000000000001,0)" xlink:href="#aT"/><use transform="matrix(0.05925925925925927,0,0,0.05925925925925927,71.05185185185186,0)" xlink:href="#aT"/></g><path fill="#333" d="M118-107v75H92v-75H18v-26h74v-75h26v75h74v26h-74" id="aU"/><use transform="matrix(0.056172839506172835,0,0,0.056172839506172835,0,0)" xlink:href="#aU" id="r"/><g id="s"><use transform="matrix(0.056172839506172835,0,0,0.056172839506172835,0,0)" xlink:href="#U"/><use transform="matrix(0.056172839506172835,0,0,0.056172839506172835,11.964814814814815,0)" xlink:href="#V"/><use transform="matrix(0.056172839506172835,0,0,0.056172839506172835,23.19938271604938,0)" xlink:href="#W"/><use transform="matrix(0.056172839506172835,0,0,0.056172839506172835,33.31049382716049,0)" xlink:href="#V"/><use transform="matrix(0.056172839506172835,0,0,0.056172839506172835,44.545061728395055,0)" xlink:href="#X"/><use transform="matrix(0.056172839506172835,0,0,0.056172839506172835,55.779629629629625,0)" xlink:href="#W"/><use transform="matrix(0.056172839506172835,0,0,0.056172839506172835,65.89074074074074,0)" xlink:href="#Y"/></g><path fill="#333" d="M205 0l-28-72H64L36 0H1l101-248h38L239 0h-34zm-38-99l-47-123c-12 45-31 82-46 123h93" id="aV"/><path fill="#333" d="M115-194c55 1 70 41 70 98S169 2 115 4C84 4 66-9 55-30l1 105H24l-1-265h31l2 30c10-21 28-34 59-34zm-8 174c40 0 45-34 45-75s-6-73-45-74c-42 0-51 32-51 76 0 43 10 73 51 73" id="aW"/><path fill="#333" d="M24 0v-261h32V0H24" id="aX"/><path fill="#333" d="M24-231v-30h32v30H24zM24 0v-190h32V0H24" id="aY"/><path fill="#333" d="M59-47c-2 24 18 29 38 22v24C64 9 27 4 27-40v-127H5v-23h24l9-43h21v43h35v23H59v120" id="aZ"/><g id="t"><use transform="matrix(0.056172839506172835,0,0,0.056172839506172835,0,0)" xlink:href="#aV"/><use transform="matrix(0.056172839506172835,0,0,0.056172839506172835,13.481481481481481,0)" xlink:href="#aW"/><use transform="matrix(0.056172839506172835,0,0,0.056172839506172835,24.716049382716047,0)" xlink:href="#aW"/><use transform="matrix(0.056172839506172835,0,0,0.056172839506172835,35.95061728395061,0)" xlink:href="#aX"/><use transform="matrix(0.056172839506172835,0,0,0.056172839506172835,40.38827160493827,0)" xlink:href="#aY"/><use transform="matrix(0.056172839506172835,0,0,0.056172839506172835,44.82592592592592,0)" xlink:href="#W"/><use transform="matrix(0.056172839506172835,0,0,0.056172839506172835,54.93703703703703,0)" xlink:href="#V"/><use transform="matrix(0.056172839506172835,0,0,0.056172839506172835,66.1716049382716,0)" xlink:href="#X"/><use transform="matrix(0.056172839506172835,0,0,0.056172839506172835,77.40617283950617,0)" xlink:href="#aZ"/></g><path fill="#333" d="M33 0v-248h34V0H33" id="ba"/><path fill="#333" d="M100-194c63 0 86 42 84 106H49c0 40 14 67 53 68 26 1 43-12 49-29l28 8c-11 28-37 45-77 45C44 4 14-33 15-96c1-61 26-98 85-98zm52 81c6-60-76-77-97-28-3 7-6 17-6 28h103" id="bb"/><path fill="#333" d="M114-163C36-179 61-72 57 0H25l-1-190h30c1 12-1 29 2 39 6-27 23-49 58-41v29" id="bc"/><path fill="#333" d="M108 0H70L1-190h34L89-25l56-165h34" id="bd"/><path fill="#333" d="M206 0h-36l-40-164L89 0H53L-1-190h32L70-26l43-164h34l41 164 42-164h31" id="be"/><g id="u"><use transform="matrix(0.056172839506172835,0,0,0.056172839506172835,0,0)" xlink:href="#ba"/><use transform="matrix(0.056172839506172835,0,0,0.056172839506172835,5.617283950617283,0)" xlink:href="#X"/><use transform="matrix(0.056172839506172835,0,0,0.056172839506172835,16.851851851851848,0)" xlink:href="#aZ"/><use transform="matrix(0.056172839506172835,0,0,0.056172839506172835,22.469135802469133,0)" xlink:href="#bb"/><use transform="matrix(0.056172839506172835,0,0,0.056172839506172835,33.703703703703695,0)" xlink:href="#bc"/><use transform="matrix(0.056172839506172835,0,0,0.056172839506172835,40.38827160493826,0)" xlink:href="#bd"/><use transform="matrix(0.056172839506172835,0,0,0.056172839506172835,50.49938271604937,0)" xlink:href="#aY"/><use transform="matrix(0.056172839506172835,0,0,0.056172839506172835,54.93703703703702,0)" xlink:href="#bb"/><use transform="matrix(0.056172839506172835,0,0,0.056172839506172835,66.17160493827159,0)" xlink:href="#be"/></g><path fill="#333" d="M233-177c-1 41-23 64-60 70L243 0h-38l-65-103H63V0H30v-248c88 3 205-21 203 71zM63-129c60-2 137 13 137-47 0-61-80-42-137-45v92" id="bf"/><path fill="#333" d="M135-143c-3-34-86-38-87 0 15 53 115 12 119 90S17 21 10-45l28-5c4 36 97 45 98 0-10-56-113-15-118-90-4-57 82-63 122-42 12 7 21 19 24 35" id="bg"/><path fill="#333" d="M84 4C-5 8 30-112 23-190h32v120c0 31 7 50 39 49 72-2 45-101 50-169h31l1 190h-30c-1-10 1-25-2-33-11 22-28 36-60 37" id="bh"/><g id="v"><use transform="matrix(0.056172839506172835,0,0,0.056172839506172835,0,0)" xlink:href="#bf"/><use transform="matrix(0.056172839506172835,0,0,0.056172839506172835,14.548765432098763,0)" xlink:href="#bb"/><use transform="matrix(0.056172839506172835,0,0,0.056172839506172835,25.78333333333333,0)" xlink:href="#bg"/><use transform="matrix(0.056172839506172835,0,0,0.056172839506172835,35.894444444444446,0)" xlink:href="#bh"/><use transform="matrix(0.056172839506172835,0,0,0.056172839506172835,47.129012345679016,0)" xlink:href="#aX"/><use transform="matrix(0.056172839506172835,0,0,0.056172839506172835,51.56666666666667,0)" xlink:href="#aZ"/></g><g id="w"><use transform="matrix(0.056172839506172814,0,0,0.056172839506172814,0,0)" xlink:href="#aV"/><use transform="matrix(0.056172839506172814,0,0,0.056172839506172814,13.481481481481476,0)" xlink:href="#aW"/><use transform="matrix(0.056172839506172814,0,0,0.056172839506172814,24.716049382716037,0)" xlink:href="#aW"/><use transform="matrix(0.056172839506172814,0,0,0.056172839506172814,35.9506172839506,0)" xlink:href="#aX"/><use transform="matrix(0.056172839506172814,0,0,0.056172839506172814,40.388271604938254,0)" xlink:href="#aY"/><use transform="matrix(0.056172839506172814,0,0,0.056172839506172814,44.82592592592591,0)" xlink:href="#W"/><use transform="matrix(0.056172839506172814,0,0,0.056172839506172814,54.937037037037015,0)" xlink:href="#V"/><use transform="matrix(0.056172839506172814,0,0,0.056172839506172814,66.17160493827157,0)" xlink:href="#X"/><use transform="matrix(0.056172839506172814,0,0,0.056172839506172814,77.40617283950613,0)" xlink:href="#aZ"/></g><use transform="matrix(0.05185185185185186,0,0,0.05185185185185186,0,0)" xlink:href="#aw" id="y"/><g id="z"><use transform="matrix(0.05185185185185186,0,0,0.05185185185185186,0,0)" xlink:href="#al"/><use transform="matrix(0.05185185185185186,0,0,0.05185185185185186,10.370370370370372,0)" xlink:href="#aj"/><use transform="matrix(0.05185185185185186,0,0,0.05185185185185186,20.740740740740744,0)" xlink:href="#as"/><use transform="matrix(0.05185185185185186,0,0,0.05185185185185186,36.24444444444445,0)" xlink:href="#au"/></g><use transform="matrix(0.05185185185185186,0,0,0.05185185185185186,0,0)" xlink:href="#aq" id="A"/><g id="B"><use transform="matrix(0.05185185185185186,0,0,0.05185185185185186,0,0)" xlink:href="#ax"/><use transform="matrix(0.05185185185185186,0,0,0.05185185185185186,9.333333333333334,0)" xlink:href="#ay"/><use transform="matrix(0.05185185185185186,0,0,0.05185185185185186,14.51851851851852,0)" xlink:href="#av"/><use transform="matrix(0.05185185185185186,0,0,0.05185185185185186,20.68888888888889,0)" xlink:href="#az"/><use transform="matrix(0.05185185185185186,0,0,0.05185185185185186,24.785185185185185,0)" xlink:href="#al"/><use transform="matrix(0.05185185185185186,0,0,0.05185185185185186,35.15555555555556,0)" xlink:href="#aA"/></g><path fill="#282c33" d="M24 0v-261h32V0H24" id="bi"/><g id="C"><use transform="matrix(0.05185185185185186,0,0,0.05185185185185186,0,0)" xlink:href="#au"/><use transform="matrix(0.05185185185185186,0,0,0.05185185185185186,10.370370370370372,0)" xlink:href="#as"/><use transform="matrix(0.05185185185185186,0,0,0.05185185185185186,25.874074074074077,0)" xlink:href="#aj"/><use transform="matrix(0.05185185185185186,0,0,0.05185185185185186,36.24444444444445,0)" xlink:href="#az"/><use transform="matrix(0.05185185185185186,0,0,0.05185185185185186,40.34074074074074,0)" xlink:href="#bi"/></g><g id="D"><use transform="matrix(0.05185185185185186,0,0,0.05185185185185186,0,0)" xlink:href="#ak"/><use transform="matrix(0.05185185185185186,0,0,0.05185185185185186,9.333333333333334,0)" xlink:href="#aD"/><use transform="matrix(0.05185185185185186,0,0,0.05185185185185186,19.703703703703706,0)" xlink:href="#aB"/><use transform="matrix(0.05185185185185186,0,0,0.05185185185185186,30.074074074074076,0)" xlink:href="#az"/><use transform="matrix(0.05185185185185186,0,0,0.05185185185185186,34.17037037037037,0)" xlink:href="#ak"/><use transform="matrix(0.05185185185185186,0,0,0.05185185185185186,43.50370370370371,0)" xlink:href="#au"/></g><g id="E"><use transform="matrix(0.05185185185185186,0,0,0.05185185185185186,0,0)" xlink:href="#al"/><use transform="matrix(0.05185185185185186,0,0,0.05185185185185186,10.370370370370372,0)" xlink:href="#ar"/><use transform="matrix(0.05185185185185186,0,0,0.05185185185185186,20.740740740740744,0)" xlink:href="#as"/><use transform="matrix(0.05185185185185186,0,0,0.05185185185185186,36.24444444444445,0)" xlink:href="#at"/><use transform="matrix(0.05185185185185186,0,0,0.05185185185185186,46.61481481481482,0)" xlink:href="#au"/><use transform="matrix(0.05185185185185186,0,0,0.05185185185185186,56.985185185185195,0)" xlink:href="#av"/></g><g id="F"><use transform="matrix(0.05185185185185186,0,0,0.05185185185185186,0,0)" xlink:href="#ap"/><use transform="matrix(0.05185185185185186,0,0,0.05185185185185186,10.370370370370372,0)" xlink:href="#au"/><use transform="matrix(0.05185185185185186,0,0,0.05185185185185186,20.740740740740744,0)" xlink:href="#aA"/><use transform="matrix(0.05185185185185186,0,0,0.05185185185185186,31.111111111111114,0)" xlink:href="#av"/><use transform="matrix(0.05185185185185186,0,0,0.05185185185185186,37.281481481481485,0)" xlink:href="#au"/><use transform="matrix(0.05185185185185186,0,0,0.05185185185185186,47.65185185185186,0)" xlink:href="#au"/></g><g id="G"><use transform="matrix(0.05185185185185186,0,0,0.05185185185185186,0,0)" xlink:href="#ax"/><use transform="matrix(0.05185185185185186,0,0,0.05185185185185186,9.333333333333334,0)" xlink:href="#ay"/><use transform="matrix(0.05185185185185186,0,0,0.05185185185185186,14.51851851851852,0)" xlink:href="#av"/><use transform="matrix(0.05185185185185186,0,0,0.05185185185185186,20.68888888888889,0)" xlink:href="#az"/><use transform="matrix(0.05185185185185186,0,0,0.05185185185185186,24.785185185185185,0)" xlink:href="#al"/><use transform="matrix(0.05185185185185186,0,0,0.05185185185185186,35.15555555555556,0)" xlink:href="#aA"/></g><use transform="matrix(0.05185185185185186,0,0,0.05185185185185186,0,0)" xlink:href="#aU" id="I"/><path fill="#333" d="M87 75C49 33 22-17 22-94c0-76 28-126 65-167h31c-38 41-64 92-64 168S80 34 118 75H87" id="bj"/><path fill="#333" d="M33-261c38 41 65 92 65 168S71 34 33 75H2C39 34 66-17 66-93S39-220 2-261h31" id="bk"/><g id="J"><use transform="matrix(0.05185185185185186,0,0,0.05185185185185186,0,0)" xlink:href="#V"/><use transform="matrix(0.05185185185185186,0,0,0.05185185185185186,10.370370370370372,0)" xlink:href="#aW"/><use transform="matrix(0.05185185185185186,0,0,0.05185185185185186,20.740740740740744,0)" xlink:href="#aW"/><use transform="matrix(0.05185185185185186,0,0,0.05185185185185186,31.111111111111114,0)" xlink:href="#aX"/><use transform="matrix(0.05185185185185186,0,0,0.05185185185185186,35.20740740740741,0)" xlink:href="#aY"/><use transform="matrix(0.05185185185185186,0,0,0.05185185185185186,39.303703703703704,0)" xlink:href="#W"/><use transform="matrix(0.05185185185185186,0,0,0.05185185185185186,48.63703703703704,0)" xlink:href="#V"/><use transform="matrix(0.05185185185185186,0,0,0.05185185185185186,59.00740740740741,0)" xlink:href="#X"/><use transform="matrix(0.05185185185185186,0,0,0.05185185185185186,69.37777777777778,0)" xlink:href="#aZ"/><use transform="matrix(0.05185185185185186,0,0,0.05185185185185186,74.56296296296297,0)" xlink:href="#bg"/><use transform="matrix(0.05185185185185186,0,0,0.05185185185185186,83.8962962962963,0)" xlink:href="#bj"/><use transform="matrix(0.05185185185185186,0,0,0.05185185185185186,90.06666666666666,0)" xlink:href="#bk"/></g><g id="K"><use transform="matrix(0.056172839506172814,0,0,0.056172839506172814,0,0)" xlink:href="#ba"/><use transform="matrix(0.056172839506172814,0,0,0.056172839506172814,5.617283950617281,0)" xlink:href="#X"/><use transform="matrix(0.056172839506172814,0,0,0.056172839506172814,16.851851851851844,0)" xlink:href="#aZ"/><use transform="matrix(0.056172839506172814,0,0,0.056172839506172814,22.469135802469125,0)" xlink:href="#bb"/><use transform="matrix(0.056172839506172814,0,0,0.056172839506172814,33.70370370370369,0)" xlink:href="#bc"/><use transform="matrix(0.056172839506172814,0,0,0.056172839506172814,40.388271604938254,0)" xlink:href="#bd"/><use transform="matrix(0.056172839506172814,0,0,0.056172839506172814,50.49938271604936,0)" xlink:href="#aY"/><use transform="matrix(0.056172839506172814,0,0,0.056172839506172814,54.937037037037015,0)" xlink:href="#bb"/><use transform="matrix(0.056172839506172814,0,0,0.056172839506172814,66.17160493827157,0)" xlink:href="#be"/></g><use transform="matrix(0.05185185185185184,0,0,0.05185185185185184,0,0)" xlink:href="#ah" id="M"/><g id="N"><use transform="matrix(0.05802469135802468,0,0,0.05802469135802468,0,0)" xlink:href="#av"/><use transform="matrix(0.05802469135802468,0,0,0.05802469135802468,6.904938271604937,0)" xlink:href="#au"/><use transform="matrix(0.05802469135802468,0,0,0.05802469135802468,18.509876543209874,0)" xlink:href="#ax"/><use transform="matrix(0.05802469135802468,0,0,0.05802469135802468,28.954320987654317,0)" xlink:href="#ar"/><use transform="matrix(0.05802469135802468,0,0,0.05802469135802468,40.55925925925925,0)" xlink:href="#bi"/><use transform="matrix(0.05802469135802468,0,0,0.05802469135802468,45.143209876543196,0)" xlink:href="#ay"/></g><path fill="#282c33" d="M26 75v-336h71v23H56V52h41v23H26" id="bl"/><path fill="#282c33" d="M3 75V52h41v-290H3v-23h71V75H3" id="bm"/><g id="O"><use transform="matrix(0.05802469135802468,0,0,0.05802469135802468,0,0)" xlink:href="#ax"/><use transform="matrix(0.05802469135802468,0,0,0.05802469135802468,10.444444444444443,0)" xlink:href="#ay"/><use transform="matrix(0.05802469135802468,0,0,0.05802469135802468,16.24691358024691,0)" xlink:href="#av"/><use transform="matrix(0.05802469135802468,0,0,0.05802469135802468,23.15185185185185,0)" xlink:href="#az"/><use transform="matrix(0.05802469135802468,0,0,0.05802469135802468,27.7358024691358,0)" xlink:href="#al"/><use transform="matrix(0.05802469135802468,0,0,0.05802469135802468,39.340740740740735,0)" xlink:href="#aA"/><use transform="matrix(0.05802469135802468,0,0,0.05802469135802468,50.94567901234567,0)" xlink:href="#bl"/><use transform="matrix(0.05802469135802468,0,0,0.05802469135802468,56.74814814814814,0)" xlink:href="#bm"/></g><use transform="matrix(0.05802469135802466,0,0,0.05802469135802466,0,0)" xlink:href="#aw" id="Q"/><g id="R"><use transform="matrix(0.05802469135802466,0,0,0.05802469135802466,0,0)" xlink:href="#al"/><use transform="matrix(0.05802469135802466,0,0,0.05802469135802466,11.604938271604933,0)" xlink:href="#aj"/><use transform="matrix(0.05802469135802466,0,0,0.05802469135802466,23.209876543209866,0)" xlink:href="#as"/><use transform="matrix(0.05802469135802466,0,0,0.05802469135802466,40.559259259259235,0)" xlink:href="#au"/><use transform="matrix(0.05802469135802466,0,0,0.05802469135802466,52.16419753086417,0)" xlink:href="#aq"/></g><path fill="#282c33" d="M205 0l-28-72H64L36 0H1l101-248h38L239 0h-34zm-38-99l-47-123c-12 45-31 82-46 123h93" id="bn"/><path fill="#282c33" d="M18-100v-36l175-74v27L42-118l151 64v27" id="bo"/><path fill="#282c33" d="M18-27v-27l151-64-151-65v-27l175 74v36" id="bp"/><g id="S"><use transform="matrix(0.05802469135802466,0,0,0.05802469135802466,0,0)" xlink:href="#bn"/><use transform="matrix(0.05802469135802466,0,0,0.05802469135802466,13.925925925925918,0)" xlink:href="#av"/><use transform="matrix(0.05802469135802466,0,0,0.05802469135802466,20.830864197530854,0)" xlink:href="#av"/><use transform="matrix(0.05802469135802466,0,0,0.05802469135802466,27.735802469135788,0)" xlink:href="#aj"/><use transform="matrix(0.05802469135802466,0,0,0.05802469135802466,39.34074074074072,0)" xlink:href="#am"/><use transform="matrix(0.05802469135802466,0,0,0.05802469135802466,49.785185185185156,0)" xlink:href="#bo"/><use transform="matrix(0.05802469135802466,0,0,0.05802469135802466,61.97037037037034,0)" xlink:href="#aj"/><use transform="matrix(0.05802469135802466,0,0,0.05802469135802466,73.57530864197527,0)" xlink:href="#al"/><use transform="matrix(0.05802469135802466,0,0,0.05802469135802466,85.1802469135802,0)" xlink:href="#am"/><use transform="matrix(0.05802469135802466,0,0,0.05802469135802466,95.62469135802465,0)" xlink:href="#bp"/></g><g id="T"><use transform="matrix(0.056172839506172814,0,0,0.056172839506172814,0,0)" xlink:href="#bf"/><use transform="matrix(0.056172839506172814,0,0,0.056172839506172814,14.548765432098758,0)" xlink:href="#bb"/><use transform="matrix(0.056172839506172814,0,0,0.056172839506172814,25.78333333333332,0)" xlink:href="#bg"/><use transform="matrix(0.056172839506172814,0,0,0.056172839506172814,35.89444444444443,0)" xlink:href="#bh"/><use transform="matrix(0.056172839506172814,0,0,0.056172839506172814,47.129012345678994,0)" xlink:href="#aX"/><use transform="matrix(0.056172839506172814,0,0,0.056172839506172814,51.56666666666665,0)" xlink:href="#aZ"/></g></defs></g></svg>